<svg id="Layer_1" data-name="Layer 1" xmlns="http://www.w3.org/2000/svg" viewBox="0 0 93.71 61.1"><defs><style>.cls-1{fill:#289dc2;}.cls-2{fill:#f39200;}</style></defs><path class="cls-1" d="M96.71,30a2.65,2.65,0,0,1-3.37,1.63L81,27.36,70.48,43.81,52.77,71.56a2.4,2.4,0,0,1-2.8,1L5.3,57.08a2.4,2.4,0,0,1-1.59-2.63l5.12-33A2.4,2.4,0,0,1,12,19.58L67.4,38.76l8.41-13.19,1.92-3a2.39,2.39,0,0,1,2.8-1l14.54,5A2.64,2.64,0,0,1,96.71,30Z" transform="translate(-3.14 -19.45)"/><rect class="cls-1" x="2.07" y="66.57" width="50.14" height="1.91" rx="0.52" transform="translate(20.43 -24.61) rotate(19.09)"/><circle class="cls-1" cx="41.35" cy="57.69" r="3.41"/><circle class="cls-1" cx="3.41" cy="44.56" r="3.41"/><path class="cls-2" d="M70.15,44.4,63.67,54.49a.9.9,0,0,1-1,.39L25.15,44.82A1,1,0,0,1,25.4,43h44A.93.93,0,0,1,70.15,44.4Z" transform="translate(-3.14 -19.45)"/><rect class="cls-2" x="50.77" y="45.2" width="12.75" height="15.42" transform="translate(34.09 -41.83) rotate(32.39)"/><path class="cls-2" d="M41.75,65.17l6.47-10.1a.93.93,0,0,1,1-.39l37.52,10a.94.94,0,0,1-.24,1.85l-44,.07A.93.93,0,0,1,41.75,65.17Z" transform="translate(-3.14 -19.45)"/><rect class="cls-2" x="66.62" y="32.75" width="12.34" height="0.78" rx="0.21"/><rect class="cls-2" x="65.18" y="35.07" width="18.86" height="0.78" rx="0.21"/><rect class="cls-2" x="63.71" y="37.39" width="18.01" height="0.78" rx="0.21"/><rect class="cls-2" x="68.09" y="30.43" width="14.67" height="0.78" rx="0.21"/><rect class="cls-2" x="69.74" y="27.83" width="11.7" height="0.78" rx="0.21"/></svg>